Amstlevar-ItalicItalic-opsz144-wght900-wdth150.ufo
<glyph name="C" format="2">
  <advance width="1761"/>
  <unicode hex="0043"/>
  <outline>
    <contour>
      <point x="64.0" y="701.0" type="qcurve" smooth="yes"/>
      <point x="127.0" y="1117.0"/>
      <point x="780.0" y="1553.0"/>
      <point x="1338.0" y="1512.0" type="qcurve" smooth="yes"/>
      <point x="1468.0" y="1502.0"/>
      <point x="1707.0" y="1431.0"/>
      <point x="1758.0" y="1394.0" type="qcurve"/>
      <point x="1808.0" y="1484.0" type="line"/>
      <point x="1844.0" y="1484.0" type="line"/>
      <point x="1739.0" y="1022.0" type="line"/>
      <point x="1644.0" y="1022.0" type="line"/>
      <point x="1628.0" y="1187.0" type="line"/>
      <point x="1607.0" y="1302.0"/>
      <point x="1470.0" y="1438.0"/>
      <point x="1366.0" y="1450.0" type="qcurve" smooth="yes"/>
      <point x="1116.0" y="1477.0"/>
      <point x="660.0" y="1137.0"/>
      <point x="598.0" y="688.0" type="qcurve" smooth="yes"/>
      <point x="552.0" y="333.0"/>
      <point x="718.0" y="84.0"/>
      <point x="961.0" y="62.0" type="qcurve" smooth="yes"/>
      <point x="1167.0" y="42.0"/>
      <point x="1510.0" y="274.0"/>
      <point x="1581.0" y="405.0" type="qcurve"/>
      <point x="1629.0" y="386.0" type="line"/>
      <point x="1663.0" y="358.0" type="line"/>
      <point x="1576.0" y="214.0"/>
      <point x="1171.0" y="-50.0"/>
      <point x="862.0" y="-38.0" type="qcurve" smooth="yes"/>
      <point x="460.0" y="-30.0"/>
      <point x="8.0" y="309.0"/>
    </contour>
  </outline>
</glyph>
<glyph name="K" format="2">
  <advance width="2176"/>
  <unicode hex="004B"/>
  <outline>
    <contour>
      <point x="-92.0" y="0.0" type="line"/>
      <point x="-63.0" y="55.0" type="line"/>
      <point x="50.0" y="60.0" type="line"/>
      <point x="232.0" y="858.0" type="line"/>
      <point x="344.0" y="1432.0" type="line"/>
      <point x="194.0" y="1441.0" type="line"/>
      <point x="202.0" y="1500.0" type="line"/>
      <point x="1035.0" y="1500.0" type="line"/>
      <point x="1007.0" y="1441.0" type="line"/>
      <point x="863.0" y="1432.0" type="line"/>
      <point x="732.0" y="812.0" type="line"/>
      <point x="559.0" y="60.0" type="line"/>
      <point x="710.0" y="55.0" type="line"/>
      <point x="694.0" y="0.0" type="line"/>
    </contour>
    <contour>
      <point x="574.0" y="547.0" type="line"/>
      <point x="594.0" y="630.0" type="line"/>
      <point x="1710.0" y="1453.0" type="line"/>
      <point x="1463.0" y="1442.0" type="line"/>
      <point x="1477.0" y="1500.0" type="line"/>
      <point x="2110.0" y="1500.0" type="line"/>
      <point x="2096.0" y="1442.0" type="line"/>
      <point x="1917.0" y="1452.0" type="line"/>
    </contour>
    <contour>
      <point x="793.0" y="769.0" type="line"/>
      <point x="1204.0" y="1047.0" type="line"/>
      <point x="1865.0" y="61.0" type="line"/>
      <point x="1994.0" y="55.0" type="line"/>
      <point x="1985.0" y="0.0" type="line"/>
      <point x="1108.0" y="0.0" type="line"/>
      <point x="1121.0" y="55.0" type="line"/>
      <point x="1288.0" y="61.0" type="line"/>
    </contour>
  </outline>
</glyph>
<glyph name="L" format="2">
  <advance width="1591"/>
  <unicode hex="004C"/>
  <outline>
    <contour>
      <point x="-106.0" y="0.0" type="line"/>
      <point x="-79.0" y="55.0" type="line"/>
      <point x="33.0" y="66.0" type="line"/>
      <point x="210.0" y="806.0" type="line"/>
      <point x="329.0" y="1449.0" type="line"/>
      <point x="194.0" y="1440.0" type="line"/>
      <point x="204.0" y="1500.0" type="line"/>
      <point x="1026.0" y="1500.0" type="line"/>
      <point x="996.0" y="1440.0" type="line"/>
      <point x="854.0" y="1449.0" type="line"/>
      <point x="708.0" y="754.0" type="line"/>
      <point x="567.0" y="94.0" type="line"/>
      <point x="618.0" y="83.0" type="line"/>
      <point x="1123.0" y="83.0" type="line"/>
      <point x="1368.0" y="471.0" type="line"/>
      <point x="1456.0" y="471.0" type="line"/>
      <point x="1318.0" y="0.0" type="line"/>
    </contour>
  </outline>
</glyph>
<glyph name="S" format="2">
  <advance width="1495"/>
  <unicode hex="0053"/>
  <outline>
    <contour>
      <point x="-179.0" y="4.0" type="line"/>
      <point x="-75.0" y="451.0" type="line"/>
      <point x="18.0" y="451.0" type="line"/>
      <point x="49.0" y="298.0" type="line" smooth="yes"/>
      <point x="78.0" y="172.0"/>
      <point x="346.0" y="32.0"/>
      <point x="490.0" y="32.0" type="qcurve" smooth="yes"/>
      <point x="664.0" y="32.0"/>
      <point x="826.0" y="115.0"/>
      <point x="858.0" y="218.0" type="qcurve" smooth="yes"/>
      <point x="895.0" y="358.0"/>
      <point x="642.0" y="558.0"/>
      <point x="418.0" y="651.0" type="qcurve" smooth="yes"/>
      <point x="220.0" y="731.0"/>
      <point x="64.0" y="995.0"/>
      <point x="118.0" y="1173.0" type="qcurve" smooth="yes"/>
      <point x="172.0" y="1365.0"/>
      <point x="470.0" y="1529.0"/>
      <point x="812.0" y="1529.0" type="qcurve" smooth="yes"/>
      <point x="946.0" y="1529.0"/>
      <point x="1181.0" y="1487.0"/>
      <point x="1250.0" y="1446.0" type="qcurve"/>
      <point x="1311.0" y="1505.0" type="line"/>
      <point x="1385.0" y="1494.0" type="line"/>
      <point x="1290.0" y="1080.0" type="line"/>
      <point x="1204.0" y="1080.0" type="line"/>
      <point x="1167.0" y="1243.0" type="line"/>
      <point x="1148.0" y="1352.0"/>
      <point x="964.0" y="1455.0"/>
      <point x="822.0" y="1455.0" type="qcurve" smooth="yes"/>
      <point x="671.0" y="1455.0"/>
      <point x="530.0" y="1409.0"/>
      <point x="500.0" y="1306.0" type="qcurve" smooth="yes"/>
      <point x="467.0" y="1181.0"/>
      <point x="648.0" y="1011.0"/>
      <point x="864.0" y="929.0" type="qcurve" smooth="yes"/>
      <point x="1156.0" y="807.0"/>
      <point x="1322.0" y="531.0"/>
      <point x="1272.0" y="355.0" type="qcurve" smooth="yes"/>
      <point x="1220.0" y="173.0"/>
      <point x="871.0" y="-32.0"/>
      <point x="511.0" y="-32.0" type="qcurve" smooth="yes"/>
      <point x="346.0" y="-32.0"/>
      <point x="76.0" y="35.0"/>
      <point x="12.0" y="97.0" type="qcurve"/>
      <point x="-98.0" y="-15.0" type="line"/>
    </contour>
  </outline>
</glyph>
<glyph name="cent" format="2">
  <advance width="1482"/>
  <unicode hex="00A2"/>
  <outline>
    <contour>
      <point x="569.0" y="-96.0" type="line"/>
      <point x="635.0" y="182.0" type="line"/>
      <point x="647.0" y="187.0" type="line"/>
      <point x="725.0" y="540.0" type="line"/>
      <point x="759.0" y="498.0" type="line"/>
      <point x="691.0" y="187.0" type="line"/>
      <point x="699.0" y="182.0" type="line"/>
      <point x="634.0" y="-92.0" type="line"/>
    </contour>
    <contour>
      <point x="876.0" y="1249.0" type="line"/>
      <point x="944.0" y="1265.0" type="line"/>
      <point x="894.0" y="1054.0" type="line"/>
      <point x="884.0" y="1049.0" type="line"/>
      <point x="759.0" y="498.0" type="line"/>
      <point x="725.0" y="540.0" type="line"/>
      <point x="842.0" y="1049.0" type="line"/>
      <point x="832.0" y="1054.0" type="line"/>
    </contour>
    <contour>
      <point x="-114.0" y="590.0" type="qcurve" smooth="yes"/>
      <point x="-100.0" y="803.0"/>
      <point x="398.0" y="1101.0"/>
      <point x="923.0" y="1101.0" type="qcurve" smooth="yes"/>
      <point x="1147.0" y="1101.0"/>
      <point x="1321.0" y="973.0"/>
      <point x="1331.0" y="869.0" type="qcurve" smooth="yes"/>
      <point x="1339.0" y="862.0"/>
      <point x="1302.0" y="773.0"/>
      <point x="1189.0" y="713.0" type="qcurve" smooth="yes"/>
      <point x="1102.0" y="700.0" type="line"/>
      <point x="1099.0" y="958.0" type="line" smooth="yes"/>
      <point x="1099.0" y="977.0"/>
      <point x="971.0" y="1015.0"/>
      <point x="879.0" y="1015.0" type="qcurve" smooth="yes"/>
      <point x="686.0" y="1015.0"/>
      <point x="410.0" y="779.0"/>
      <point x="404.0" y="610.0" type="qcurve" smooth="yes"/>
      <point x="388.0" y="414.0"/>
      <point x="550.0" y="271.0"/>
      <point x="718.0" y="266.0" type="qcurve" smooth="yes"/>
      <point x="856.0" y="262.0"/>
      <point x="1122.0" y="337.0"/>
      <point x="1221.0" y="422.0" type="qcurve"/>
      <point x="1268.0" y="368.0" type="line"/>
      <point x="1271.0" y="333.0" type="line"/>
      <point x="1150.0" y="193.0"/>
      <point x="841.0" y="120.0"/>
      <point x="613.0" y="116.0" type="qcurve" smooth="yes"/>
      <point x="212.0" y="109.0"/>
      <point x="-129.0" y="373.0"/>
    </contour>
  </outline>
</glyph>
<glyph name="copyright" format="2">
  <advance width="1973"/>
  <unicode hex="00A9"/>
  <outline>
    <contour>
      <point x="452.0" y="599.0" type="qcurve" smooth="yes"/>
      <point x="452.0" y="807.0"/>
      <point x="768.0" y="1061.0"/>
      <point x="1002.0" y="1061.0" type="qcurve" smooth="yes"/>
      <point x="1093.0" y="1061.0"/>
      <point x="1199.0" y="1035.0"/>
      <point x="1241.0" y="1014.0" type="qcurve"/>
      <point x="1286.0" y="1058.0" type="line"/>
      <point x="1354.0" y="1063.0" type="line"/>
      <point x="1349.0" y="768.0" type="line"/>
      <point x="1276.0" y="765.0" type="line"/>
      <point x="1262.0" y="774.0" type="line"/>
      <point x="1252.0" y="899.0"/>
      <point x="1142.0" y="999.0"/>
      <point x="1060.0" y="999.0" type="qcurve" smooth="yes"/>
      <point x="953.0" y="999.0"/>
      <point x="795.0" y="853.0"/>
      <point x="795.0" y="620.0" type="qcurve" smooth="yes"/>
      <point x="795.0" y="452.0"/>
      <point x="949.0" y="314.0"/>
      <point x="1104.0" y="314.0" type="qcurve" smooth="yes"/>
      <point x="1190.0" y="314.0"/>
      <point x="1299.0" y="347.0"/>
      <point x="1338.0" y="409.0" type="qcurve"/>
      <point x="1365.0" y="382.0" type="line"/>
      <point x="1345.0" y="316.0"/>
      <point x="1159.0" y="183.0"/>
      <point x="964.0" y="183.0" type="qcurve" smooth="yes"/>
      <point x="762.0" y="183.0"/>
      <point x="452.0" y="417.0"/>
    </contour>
    <contour>
      <point x="-4.0" y="669.0" type="qcurve" smooth="yes"/>
      <point x="-4.0" y="1025.0"/>
      <point x="520.0" y="1516.0"/>
      <point x="917.0" y="1516.0" type="qcurve" smooth="yes"/>
      <point x="1312.0" y="1516.0"/>
      <point x="1853.0" y="1050.0"/>
      <point x="1853.0" y="690.0" type="qcurve" smooth="yes"/>
      <point x="1853.0" y="295.0"/>
      <point x="1330.0" y="-196.0"/>
      <point x="939.0" y="-196.0" type="qcurve" smooth="yes"/>
      <point x="536.0" y="-196.0"/>
      <point x="-4.0" y="283.0"/>
    </contour>
    <contour>
      <point x="127.0" y="662.0" type="qcurve" smooth="yes"/>
      <point x="127.0" y="341.0"/>
      <point x="602.0" y="-60.0"/>
      <point x="940.0" y="-60.0" type="qcurve" smooth="yes"/>
      <point x="1271.0" y="-60.0"/>
      <point x="1716.0" y="362.0"/>
      <point x="1716.0" y="679.0" type="qcurve" smooth="yes"/>
      <point x="1716.0" y="968.0"/>
      <point x="1257.0" y="1376.0"/>
      <point x="915.0" y="1376.0" type="qcurve" smooth="yes"/>
      <point x="587.0" y="1376.0"/>
      <point x="127.0" y="960.0"/>
    </contour>
  </outline>
</glyph>
<glyph name="ordfeminine" format="2">
  <advance width="1543"/>
  <unicode hex="00AA"/>
  <outline>
    <contour>
      <point x="67.0" y="945.0" type="qcurve" smooth="yes"/>
      <point x="58.0" y="1194.0"/>
      <point x="467.0" y="1502.0"/>
      <point x="813.0" y="1502.0" type="qcurve" smooth="yes"/>
      <point x="909.0" y="1502.0"/>
      <point x="1015.0" y="1471.0"/>
      <point x="1034.0" y="1460.0" type="qcurve"/>
      <point x="1173.0" y="1482.0" type="line"/>
      <point x="1263.0" y="1482.0" type="line"/>
      <point x="1280.0" y="1321.0" type="line"/>
      <point x="1223.0" y="1058.0" type="line"/>
      <point x="1219.0" y="978.0" type="line"/>
      <point x="1294.0" y="718.0" type="line"/>
      <point x="1095.0" y="709.0" type="line"/>
      <point x="949.0" y="895.0" type="line"/>
      <point x="575.0" y="724.0" type="line"/>
      <point x="324.0" y="716.0"/>
      <point x="71.0" y="839.0"/>
    </contour>
    <contour>
      <point x="377.0" y="967.0" type="qcurve" smooth="yes"/>
      <point x="379.0" y="864.0"/>
      <point x="470.0" y="837.0"/>
      <point x="530.0" y="837.0" type="qcurve" smooth="yes"/>
      <point x="655.0" y="837.0"/>
      <point x="905.0" y="989.0"/>
      <point x="935.0" y="1134.0" type="qcurve" smooth="yes"/>
      <point x="998.0" y="1389.0" type="line"/>
      <point x="990.0" y="1398.0"/>
      <point x="928.0" y="1447.0"/>
      <point x="824.0" y="1447.0" type="qcurve" smooth="yes"/>
      <point x="649.0" y="1447.0"/>
      <point x="372.0" y="1085.0"/>
    </contour>
  </outline>
</glyph>
<glyph name="logicalnot" format="2">
  <advance width="1152"/>
  <unicode hex="00AC"/>
  <outline>
    <contour>
      <point x="0.0" y="809.0" type="line"/>
      <point x="903.0" y="809.0" type="line"/>
      <point x="903.0" y="360.0" type="line"/>
      <point x="653.0" y="360.0" type="line"/>
      <point x="653.0" y="605.0" type="line"/>
      <point x="0.0" y="605.0" type="line"/>
    </contour>
  </outline>
</glyph>
<glyph name="macron" format="2">
  <advance width="896"/>
  <unicode hex="00AF"/>
  <outline>
    <contour>
      <point x="73.0" y="1174.0" type="line"/>
      <point x="102.0" y="1323.0" type="line"/>
      <point x="876.0" y="1323.0" type="line"/>
      <point x="847.0" y="1174.0" type="line"/>
    </contour>
  </outline>
</glyph>
<glyph name="degree" format="2">
  <advance width="926"/>
  <unicode hex="00B0"/>
  <outline>
    <contour>
      <point x="57.0" y="1243.0" type="qcurve" smooth="yes"/>
      <point x="57.0" y="1371.0"/>
      <point x="235.0" y="1560.0"/>
      <point x="374.0" y="1560.0" type="qcurve" smooth="yes"/>
      <point x="513.0" y="1560.0"/>
      <point x="691.0" y="1371.0"/>
      <point x="691.0" y="1243.0" type="qcurve" smooth="yes"/>
      <point x="691.0" y="1118.0"/>
      <point x="513.0" y="928.0"/>
      <point x="374.0" y="928.0" type="qcurve" smooth="yes"/>
      <point x="235.0" y="928.0"/>
      <point x="57.0" y="1118.0"/>
    </contour>
    <contour>
      <point x="175.0" y="1243.0" type="qcurve" smooth="yes"/>
      <point x="175.0" y="1166.0"/>
      <point x="288.0" y="1045.0"/>
      <point x="374.0" y="1045.0" type="qcurve" smooth="yes"/>
      <point x="461.0" y="1045.0"/>
      <point x="573.0" y="1166.0"/>
      <point x="573.0" y="1243.0" type="qcurve" smooth="yes"/>
      <point x="573.0" y="1324.0"/>
      <point x="461.0" y="1443.0"/>
      <point x="374.0" y="1443.0" type="qcurve" smooth="yes"/>
      <point x="288.0" y="1443.0"/>
      <point x="175.0" y="1324.0"/>
    </contour>
  </outline>
</glyph>
<glyph name="multiply" format="2">
  <advance width="1152"/>
  <unicode hex="00D7"/>
  <outline>
    <contour>
      <point x="159.0" y="200.0" type="line"/>
      <point x="11.0" y="350.0" type="line"/>
      <point x="786.0" y="1125.0" type="line"/>
      <point x="934.0" y="974.0" type="line"/>
    </contour>
    <contour>
      <point x="792.0" y="206.0" type="line"/>
      <point x="17.0" y="980.0" type="line"/>
      <point x="152.0" y="1118.0" type="line"/>
      <point x="927.0" y="343.0" type="line"/>
    </contour>
  </outline>
</glyph>
<glyph name="kgreenlandic" format="2">
  <advance width="1835"/>
  <unicode hex="0138"/>
  <outline>
    <contour>
      <point x="31.0" y="138.0" type="line"/>
      <point x="126.0" y="458.0" type="line"/>
      <point x="189.0" y="811.0" type="line"/>
      <point x="-32.0" y="818.0" type="line"/>
      <point x="-20.0" y="877.0" type="line"/>
      <point x="438.0" y="964.0" type="line"/>
      <point x="655.0" y="966.0" type="line"/>
      <point x="680.0" y="806.0" type="line"/>
      <point x="631.0" y="680.0" type="line"/>
      <point x="518.0" y="202.0" type="line"/>
      <point x="572.0" y="36.0" type="line"/>
      <point x="32.0" y="10.0" type="line"/>
    </contour>
    <contour>
      <point x="1719.0" y="923.0" type="line"/>
      <point x="1506.0" y="873.0" type="line"/>
      <point x="1133.0" y="698.0" type="line"/>
      <point x="1463.0" y="119.0" type="line"/>
      <point x="1667.0" y="102.0" type="line"/>
      <point x="1662.0" y="47.0" type="line"/>
      <point x="1161.0" y="-2.0" type="line" smooth="yes"/>
      <point x="1105.0" y="-16.0"/>
      <point x="1050.0" y="9.0"/>
      <point x="978.0" y="104.0" type="qcurve"/>
      <point x="777.0" y="475.0" type="line"/>
      <point x="531.0" y="334.0" type="line"/>
      <point x="572.0" y="431.0" type="line"/>
      <point x="1268.0" y="876.0" type="line"/>
      <point x="1265.0" y="887.0" type="line"/>
      <point x="1096.0" y="918.0" type="line"/>
      <point x="1107.0" y="970.0" type="line"/>
      <point x="1729.0" y="971.0" type="line"/>
    </contour>
  </outline>
</glyph>
<glyph name="florin" format="2">
  <advance width="1199"/>
  <unicode hex="0192"/>
  <outline>
    <contour>
      <point x="644.0" y="493.0" type="line" smooth="yes"/>
      <point x="557.0" y="37.0"/>
      <point x="209.0" y="-291.0"/>
      <point x="-60.0" y="-291.0" type="qcurve" smooth="yes"/>
      <point x="-159.0" y="-291.0"/>
      <point x="-229.0" y="-270.0"/>
      <point x="-249.0" y="-258.0" type="qcurve" smooth="yes"/>
      <point x="-269.0" y="-251.0" type="line"/>
      <point x="-267.0" y="-150.0" type="line"/>
      <point x="-261.0" y="-147.0" type="line" smooth="yes"/>
      <point x="-249.0" y="-163.0"/>
      <point x="-183.0" y="-178.0"/>
      <point x="-142.0" y="-178.0" type="qcurve" smooth="yes"/>
      <point x="-66.0" y="-178.0"/>
      <point x="128.0" y="13.0"/>
      <point x="196.0" y="416.0" type="qcurve" smooth="yes"/>
      <point x="254.0" y="800.0" type="line"/>
      <point x="57.0" y="819.0" type="line"/>
      <point x="52.0" y="889.0" type="line"/>
      <point x="281.0" y="920.0" type="line"/>
      <point x="299.0" y="997.0" type="line" smooth="yes"/>
      <point x="348.0" y="1257.0"/>
      <point x="643.0" y="1538.0"/>
      <point x="881.0" y="1538.0" type="qcurve" smooth="yes"/>
      <point x="990.0" y="1538.0"/>
      <point x="1089.0" y="1506.0"/>
      <point x="1113.0" y="1498.0" type="qcurve" smooth="yes"/>
      <point x="1135.0" y="1490.0" type="line"/>
      <point x="1131.0" y="1385.0" type="line"/>
      <point x="1129.0" y="1381.0" type="line" smooth="yes"/>
      <point x="1110.0" y="1399.0"/>
      <point x="1018.0" y="1430.0"/>
      <point x="971.0" y="1430.0" type="qcurve" smooth="yes"/>
      <point x="908.0" y="1430.0"/>
      <point x="774.0" y="1254.0"/>
      <point x="738.0" y="1012.0" type="qcurve" smooth="yes"/>
      <point x="723.0" y="902.0" type="line"/>
      <point x="1004.0" y="902.0" type="line"/>
      <point x="998.0" y="823.0" type="line"/>
      <point x="709.0" y="800.0" type="line"/>
    </contour>
  </outline>
</glyph>
<glyph name="caron" format="2">
  <advance width="896"/>
  <unicode hex="02C7"/>
  <outline>
    <contour>
      <point x="429.0" y="1136.0" type="qcurve" smooth="yes"/>
      <point x="392.0" y="1137.0"/>
      <point x="346.0" y="1194.0"/>
      <point x="314.0" y="1247.0" type="qcurve" smooth="yes"/>
      <point x="157.0" y="1513.0" type="line"/>
      <point x="212.0" y="1542.0" type="line"/>
      <point x="487.0" y="1335.0" type="line"/>
      <point x="859.0" y="1550.0" type="line"/>
      <point x="879.0" y="1512.0" type="line"/>
      <point x="599.0" y="1242.0" type="line" smooth="yes"/>
      <point x="542.0" y="1183.0"/>
      <point x="466.0" y="1134.0"/>
    </contour>
  </outline>
</glyph>
<glyph name="breve" format="2">
  <advance width="896"/>
  <unicode hex="02D8"/>
  <outline>
    <contour>
      <point x="857.0" y="1363.0" type="qcurve"/>
      <point x="931.0" y="1355.0" type="line"/>
      <point x="871.0" y="1218.0"/>
      <point x="631.0" y="1066.0"/>
      <point x="457.0" y="1066.0" type="qcurve" smooth="yes"/>
      <point x="286.0" y="1066.0"/>
      <point x="110.0" y="1249.0"/>
      <point x="130.0" y="1371.0" type="qcurve"/>
      <point x="211.0" y="1376.0" type="line"/>
      <point x="237.0" y="1307.0"/>
      <point x="384.0" y="1214.0"/>
      <point x="499.0" y="1214.0" type="qcurve" smooth="yes"/>
      <point x="606.0" y="1214.0"/>
      <point x="808.0" y="1294.0"/>
    </contour>
  </outline>
</glyph>
<glyph name="dotaccent" format="2">
  <advance width="896"/>
  <unicode hex="02D9"/>
  <outline>
    <contour>
      <point x="337.0" y="1239.0" type="qcurve" smooth="yes"/>
      <point x="337.0" y="1308.0"/>
      <point x="410.0" y="1379.0"/>
      <point x="479.0" y="1379.0" type="qcurve" smooth="yes"/>
      <point x="545.0" y="1379.0"/>
      <point x="621.0" y="1301.0"/>
      <point x="621.0" y="1239.0" type="qcurve" smooth="yes"/>
      <point x="621.0" y="1171.0"/>
      <point x="550.0" y="1098.0"/>
      <point x="479.0" y="1098.0" type="qcurve" smooth="yes"/>
      <point x="414.0" y="1098.0"/>
      <point x="337.0" y="1175.0"/>
    </contour>
  </outline>
</glyph>
<glyph name="guilsinglleft" format="2">
  <advance width="1038"/>
  <unicode hex="2039"/>
  <outline>
    <contour>
      <point x="70.0" y="614.0" type="line"/>
      <point x="70.0" y="614.0"/>
      <point x="801.0" y="958.0"/>
      <point x="878.0" y="1002.0" type="qcurve" smooth="yes"/>
      <point x="945.0" y="1039.0"/>
      <point x="971.0" y="938.0"/>
      <point x="905.0" y="893.0" type="qcurve" smooth="yes"/>
      <point x="798.0" y="822.0"/>
      <point x="399.0" y="617.0"/>
      <point x="357.0" y="586.0" type="qcurve"/>
      <point x="398.0" y="556.0"/>
      <point x="795.0" y="348.0"/>
      <point x="829.0" y="309.0" type="qcurve" smooth="yes"/>
      <point x="864.0" y="260.0"/>
      <point x="810.0" y="173.0"/>
      <point x="765.0" y="190.0" type="qcurve" smooth="yes"/>
      <point x="707.0" y="221.0"/>
      <point x="144.0" y="506.0"/>
      <point x="58.0" y="554.0" type="qcurve"/>
    </contour>
  </outline>
</glyph>
<glyph name="colonsign" format="2">
  <advance width="1448"/>
  <unicode hex="20A1"/>
  <outline>
    <contour>
      <point x="657.0" y="-72.0" type="line"/>
      <point x="699.0" y="72.0" type="line"/>
      <point x="705.0" y="72.0" type="line"/>
      <point x="875.0" y="811.0" type="line"/>
      <point x="923.0" y="803.0" type="line"/>
      <point x="765.0" y="81.0" type="line"/>
      <point x="772.0" y="82.0" type="line"/>
      <point x="731.0" y="-3.0" type="line"/>
    </contour>
    <contour>
      <point x="1042.0" y="1575.0" type="line"/>
      <point x="1113.0" y="1578.0" type="line"/>
      <point x="1067.0" y="1403.0" type="line"/>
      <point x="1057.0" y="1403.0" type="line"/>
      <point x="923.0" y="803.0" type="line"/>
      <point x="875.0" y="811.0" type="line"/>
      <point x="1008.0" y="1412.0" type="line"/>
      <point x="1001.0" y="1412.0" type="line"/>
    </contour>
    <contour>
      <point x="532.0" y="-172.0" type="line"/>
      <point x="546.0" y="-70.0" type="line"/>
      <point x="552.0" y="-70.0" type="line"/>
      <point x="765.0" y="811.0" type="line"/>
      <point x="813.0" y="803.0" type="line"/>
      <point x="612.0" y="-61.0" type="line"/>
      <point x="619.0" y="-60.0" type="line"/>
      <point x="606.0" y="-103.0" type="line"/>
    </contour>
    <contour>
      <point x="932.0" y="1575.0" type="line"/>
      <point x="1003.0" y="1578.0" type="line"/>
      <point x="943.0" y="1331.0" type="line"/>
      <point x="933.0" y="1331.0" type="line"/>
      <point x="813.0" y="803.0" type="line"/>
      <point x="765.0" y="811.0" type="line"/>
      <point x="900.0" y="1400.0" type="line"/>
      <point x="893.0" y="1400.0" type="line"/>
    </contour>
    <contour>
      <point x="11.0" y="794.0" type="qcurve" smooth="yes"/>
      <point x="93.0" y="1162.0"/>
      <point x="603.0" y="1450.0"/>
      <point x="958.0" y="1396.0" type="qcurve" smooth="yes"/>
      <point x="1160.0" y="1363.0"/>
      <point x="1395.0" y="1171.0"/>
      <point x="1366.0" y="992.0" type="qcurve"/>
      <point x="1202.0" y="992.0" type="line"/>
      <point x="1226.0" y="1133.0"/>
      <point x="1058.0" y="1300.0"/>
      <point x="965.0" y="1322.0" type="qcurve" smooth="yes"/>
      <point x="769.0" y="1364.0"/>
      <point x="499.0" y="1038.0"/>
      <point x="448.0" y="819.0" type="qcurve" smooth="yes"/>
      <point x="379.0" y="533.0"/>
      <point x="439.0" y="189.0"/>
      <point x="612.0" y="175.0" type="qcurve" smooth="yes"/>
      <point x="798.0" y="158.0"/>
      <point x="1041.0" y="280.0"/>
      <point x="1142.0" y="388.0" type="qcurve"/>
      <point x="1139.0" y="402.0" type="line"/>
      <point x="1253.0" y="348.0" type="line"/>
      <point x="1147.0" y="219.0"/>
      <point x="855.0" y="47.0"/>
      <point x="548.0" y="68.0" type="qcurve" smooth="yes"/>
      <point x="236.0" y="86.0"/>
      <point x="-71.0" y="429.0"/>
    </contour>
  </outline>
</glyph>
<glyph name="lira" format="2">
  <advance width="1609"/>
  <unicode hex="20A4"/>
  <outline>
    <contour>
      <point x="184.0" y="-18.0" type="qcurve" smooth="yes"/>
      <point x="41.0" y="-19.0"/>
      <point x="-121.0" y="98.0"/>
      <point x="-103.0" y="226.0" type="qcurve" smooth="yes"/>
      <point x="-87.0" y="343.0"/>
      <point x="89.0" y="447.0"/>
      <point x="190.0" y="447.0" type="qcurve" smooth="yes"/>
      <point x="287.0" y="447.0"/>
      <point x="482.0" y="390.0"/>
      <point x="595.0" y="339.0" type="qcurve" smooth="yes"/>
      <point x="755.0" y="259.0"/>
      <point x="1052.0" y="158.0"/>
      <point x="1124.0" y="159.0" type="qcurve" smooth="yes"/>
      <point x="1217.0" y="160.0"/>
      <point x="1320.0" y="219.0"/>
      <point x="1378.0" y="275.0" type="qcurve"/>
      <point x="1425.0" y="205.0" type="line"/>
      <point x="1383.0" y="117.0"/>
      <point x="1154.0" y="-11.0"/>
      <point x="1055.0" y="-12.0" type="qcurve" smooth="yes"/>
      <point x="895.0" y="-13.0"/>
      <point x="625.0" y="94.0"/>
      <point x="468.0" y="173.0" type="qcurve" smooth="yes"/>
      <point x="386.0" y="208.0"/>
      <point x="226.0" y="279.0"/>
      <point x="166.0" y="279.0" type="qcurve" smooth="yes"/>
      <point x="102.0" y="279.0"/>
      <point x="-2.0" y="231.0"/>
      <point x="-7.0" y="177.0" type="qcurve" smooth="yes"/>
      <point x="-10.0" y="137.0"/>
      <point x="96.0" y="57.0"/>
      <point x="184.0" y="57.0" type="qcurve" smooth="yes"/>
      <point x="380.0" y="57.0"/>
      <point x="575.0" y="232.0"/>
      <point x="575.0" y="406.0" type="qcurve" smooth="yes"/>
      <point x="575.0" y="491.0"/>
      <point x="506.0" y="697.0"/>
      <point x="442.0" y="812.0" type="qcurve" smooth="yes"/>
      <point x="393.0" y="896.0"/>
      <point x="353.0" y="1072.0"/>
      <point x="376.0" y="1159.0" type="qcurve" smooth="yes"/>
      <point x="408.0" y="1298.0"/>
      <point x="710.0" y="1519.0"/>
      <point x="974.0" y="1521.0" type="qcurve" smooth="yes"/>
      <point x="1182.0" y="1522.0"/>
      <point x="1387.0" y="1428.0"/>
      <point x="1445.0" y="1367.0" type="qcurve"/>
      <point x="1397.0" y="1295.0" type="line"/>
      <point x="1344.0" y="1357.0"/>
      <point x="1180.0" y="1430.0"/>
      <point x="1081.0" y="1427.0" type="qcurve" smooth="yes"/>
      <point x="978.0" y="1425.0"/>
      <point x="773.0" y="1315.0"/>
      <point x="751.0" y="1235.0" type="qcurve" smooth="yes"/>
      <point x="729.0" y="1148.0"/>
      <point x="761.0" y="969.0"/>
      <point x="803.0" y="886.0" type="qcurve" smooth="yes"/>
      <point x="854.0" y="785.0"/>
      <point x="885.0" y="598.0"/>
      <point x="884.0" y="514.0" type="qcurve" smooth="yes"/>
      <point x="882.0" y="263.0"/>
      <point x="488.0" y="-17.0"/>
    </contour>
    <contour>
      <point x="240.0" y="624.0" type="line"/>
      <point x="259.0" y="710.0" type="line"/>
      <point x="1195.0" y="710.0" type="line"/>
      <point x="1169.0" y="624.0" type="line"/>
    </contour>
    <contour>
      <point x="138.0" y="855.0" type="line"/>
      <point x="157.0" y="941.0" type="line"/>
      <point x="1233.0" y="941.0" type="line"/>
      <point x="1207.0" y="855.0" type="line"/>
    </contour>
  </outline>
</glyph>
<glyph name="won" format="2">
  <advance width="2431"/>
  <unicode hex="20A9"/>
  <outline>
    <contour>
      <point x="1984.0" y="585.0" type="line"/>
      <point x="1781.0" y="585.0" type="line"/>
      <point x="1781.0" y="585.0" type="line"/>
      <point x="1218.0" y="585.0" type="line"/>
      <point x="1228.0" y="641.0" type="line"/>
      <point x="1809.0" y="641.0" type="line"/>
      <point x="1809.0" y="641.0" type="line"/>
      <point x="2016.0" y="641.0" type="line"/>
    </contour>
    <contour>
      <point x="2190.0" y="940.0" type="line"/>
      <point x="1995.0" y="940.0" type="line"/>
      <point x="1995.0" y="940.0" type="line"/>
      <point x="1193.0" y="940.0" type="line"/>
      <point x="1203.0" y="996.0" type="line"/>
      <point x="2019.0" y="996.0" type="line"/>
      <point x="2019.0" y="996.0" type="line"/>
      <point x="2221.0" y="996.0" type="line"/>
    </contour>
    <contour>
      <point x="73.0" y="585.0" type="line"/>
      <point x="76.0" y="641.0" type="line"/>
      <point x="284.0" y="641.0" type="line"/>
      <point x="281.0" y="641.0" type="line"/>
      <point x="1228.0" y="641.0" type="line"/>
      <point x="1218.0" y="585.0" type="line"/>
      <point x="281.0" y="585.0" type="line"/>
      <point x="276.0" y="585.0" type="line"/>
    </contour>
    <contour>
      <point x="61.0" y="940.0" type="line"/>
      <point x="65.0" y="996.0" type="line"/>
      <point x="268.0" y="996.0" type="line"/>
      <point x="263.0" y="996.0" type="line"/>
      <point x="1203.0" y="996.0" type="line"/>
      <point x="1193.0" y="940.0" type="line"/>
      <point x="257.0" y="940.0" type="line"/>
      <point x="252.0" y="940.0" type="line"/>
    </contour>
    <contour>
      <point x="-17.0" y="1444.0" type="line"/>
      <point x="-18.0" y="1500.0" type="line"/>
      <point x="682.0" y="1500.0" type="line"/>
      <point x="682.0" y="1444.0" type="line"/>
      <point x="522.0" y="1385.0" type="line"/>
      <point x="598.0" y="839.0" type="line"/>
      <point x="677.0" y="202.0" type="line"/>
      <point x="634.0" y="203.0" type="line"/>
      <point x="991.0" y="836.0" type="line"/>
      <point x="1114.0" y="1099.0" type="line"/>
      <point x="1176.0" y="973.0" type="line"/>
      <point x="1004.0" y="739.0" type="line"/>
      <point x="673.0" y="2.0" type="line"/>
      <point x="287.0" y="2.0" type="line"/>
      <point x="184.0" y="752.0" type="line"/>
      <point x="97.0" y="1387.0" type="line"/>
    </contour>
    <contour>
      <point x="868.0" y="1437.0" type="line"/>
      <point x="870.0" y="1500.0" type="line"/>
      <point x="1556.0" y="1500.0" type="line"/>
      <point x="1553.0" y="1453.0" type="line"/>
      <point x="1395.0" y="1380.0" type="line"/>
      <point x="1488.0" y="857.0" type="line"/>
      <point x="1582.0" y="204.0" type="line"/>
      <point x="1538.0" y="198.0" type="line"/>
      <point x="1917.0" y="841.0" type="line"/>
      <point x="2225.0" y="1375.0" type="line"/>
      <point x="2092.0" y="1444.0" type="line"/>
      <point x="2105.0" y="1500.0" type="line"/>
      <point x="2569.0" y="1500.0" type="line"/>
      <point x="2555.0" y="1444.0" type="line"/>
      <point x="2310.0" y="1385.0" type="line"/>
      <point x="1990.0" y="829.0" type="line"/>
      <point x="1592.0" y="2.0" type="line"/>
      <point x="1215.0" y="2.0" type="line"/>
      <point x="1109.0" y="736.0" type="line"/>
      <point x="1002.0" y="1382.0" type="line"/>
    </contour>
  </outline>
</glyph>
<glyph name="f_f_i" format="2">
  <advance width="2918"/>
  <unicode hex="FB03"/>
  <outline>
    <contour>
      <point x="-469.0" y="-419.0" type="line" smooth="yes"/>
      <point x="-450.0" y="-360.0" type="line"/>
      <point x="-289.0" y="-360.0" type="line" smooth="yes"/>
      <point x="-88.0" y="-361.0"/>
      <point x="84.0" y="-72.0"/>
      <point x="148.0" y="343.0" type="qcurve" smooth="yes"/>
      <point x="227.0" y="848.0" type="line"/>
      <point x="229.0" y="857.0" type="line"/>
      <point x="259.0" y="1035.0" type="line" smooth="yes"/>
      <point x="301.0" y="1263.0"/>
      <point x="663.0" y="1533.0"/>
      <point x="926.0" y="1532.0" type="qcurve" smooth="yes"/>
      <point x="1107.0" y="1531.0"/>
      <point x="1284.0" y="1437.0"/>
      <point x="1279.0" y="1348.0" type="qcurve" smooth="yes"/>
      <point x="1275.0" y="1279.0"/>
      <point x="1184.0" y="1202.0"/>
      <point x="1107.0" y="1207.0" type="qcurve" smooth="yes"/>
      <point x="1105.0" y="1233.0"/>
      <point x="1094.0" y="1294.0"/>
      <point x="1095.0" y="1328.0" type="qcurve" smooth="yes"/>
      <point x="1095.0" y="1366.0"/>
      <point x="1060.0" y="1462.0"/>
      <point x="984.0" y="1462.0" type="qcurve" smooth="yes"/>
      <point x="893.0" y="1462.0"/>
      <point x="782.0" y="1278.0"/>
      <point x="737.0" y="1022.0" type="qcurve" smooth="yes"/>
      <point x="705.0" y="858.0" type="line"/>
      <point x="704.0" y="852.0" type="line"/>
      <point x="665.0" y="581.0" type="line" smooth="yes"/>
      <point x="585.0" y="24.0"/>
      <point x="46.0" y="-479.0"/>
      <point x="-231.0" y="-479.0" type="qcurve"/>
    </contour>
    <contour>
      <point x="538.0" y="-391.0" type="line" smooth="yes"/>
      <point x="558.0" y="-332.0" type="line"/>
      <point x="739.0" y="-332.0" type="line" smooth="yes"/>
      <point x="940.0" y="-333.0"/>
      <point x="1109.0" y="-39.0"/>
      <point x="1176.0" y="375.0" type="qcurve" smooth="yes"/>
      <point x="1253.0" y="851.0" type="line"/>
      <point x="1255.0" y="856.0" type="line"/>
      <point x="1311.0" y="1171.0" type="line" smooth="yes"/>
      <point x="1318.0" y="1245.0"/>
      <point x="1624.0" y="1548.0"/>
      <point x="1937.0" y="1550.0" type="qcurve" smooth="yes"/>
      <point x="2170.0" y="1552.0"/>
      <point x="2409.0" y="1423.0"/>
      <point x="2410.0" y="1316.0" type="qcurve" smooth="yes"/>
      <point x="2410.0" y="1231.0"/>
      <point x="2324.0" y="1151.0"/>
      <point x="2221.0" y="1157.0" type="qcurve" smooth="yes"/>
      <point x="2212.0" y="1189.0"/>
      <point x="2199.0" y="1269.0"/>
      <point x="2200.0" y="1306.0" type="qcurve" smooth="yes"/>
      <point x="2200.0" y="1372.0"/>
      <point x="2112.0" y="1483.0"/>
      <point x="2004.0" y="1483.0" type="qcurve" smooth="yes"/>
      <point x="1873.0" y="1483.0"/>
      <point x="1797.0" y="1258.0"/>
      <point x="1780.0" y="1158.0" type="qcurve" smooth="yes"/>
      <point x="1731.0" y="859.0" type="line"/>
      <point x="1732.0" y="851.0" type="line"/>
      <point x="1692.0" y="609.0" type="line" smooth="yes"/>
      <point x="1600.0" y="49.0"/>
      <point x="1073.0" y="-451.0"/>
      <point x="796.0" y="-451.0" type="qcurve"/>
    </contour>
    <contour>
      <point x="-10.0" y="771.0" type="line"/>
      <point x="-3.0" y="857.0" type="line"/>
      <point x="252.0" y="862.0" type="line"/>
      <point x="2244.0" y="879.0" type="line"/>
      <point x="2232.0" y="795.0" type="line"/>
      <point x="608.0" y="776.0" type="line"/>
      <point x="249.0" y="765.0" type="line"/>
    </contour>
    <contour>
      <point x="2106.0" y="-11.0" type="line"/>
      <point x="2047.0" y="111.0" type="line"/>
      <point x="2152.0" y="527.0" type="line"/>
      <point x="2208.0" y="762.0" type="line"/>
      <point x="2010.0" y="803.0" type="line"/>
      <point x="2011.0" y="823.0" type="line"/>
      <point x="2582.0" y="948.0" type="line"/>
      <point x="2694.0" y="934.0" type="line"/>
      <point x="2643.0" y="866.0" type="line"/>
      <point x="2640.0" y="779.0" type="line"/>
      <point x="2525.0" y="133.0" type="line"/>
      <point x="2754.0" y="128.0" type="line"/>
      <point x="2745.0" y="69.0" type="line"/>
    </contour>
  </outline>
</glyph>
<glyph name="caroncomb.case" format="2">
  <advance width="896"/>
  <outline>
    <contour>
      <point x="553.0" y="1593.0" type="qcurve" smooth="yes"/>
      <point x="518.0" y="1593.0"/>
      <point x="457.0" y="1649.0"/>
      <point x="429.0" y="1704.0" type="qcurve" smooth="yes"/>
      <point x="250.0" y="1979.0" type="line"/>
      <point x="305.0" y="2008.0" type="line"/>
      <point x="602.0" y="1802.0" type="line"/>
      <point x="1003.0" y="2005.0" type="line"/>
      <point x="1020.0" y="1963.0" type="line"/>
      <point x="714.0" y="1699.0" type="line" smooth="yes"/>
      <point x="661.0" y="1652.0"/>
      <point x="590.0" y="1593.0"/>
    </contour>
  </outline>
</glyph>
<glyph name="commaaccentcomb.case" format="2">
  <advance width="896"/>
  <outline>
    <contour>
      <point x="58.0" y="-669.0" type="qcurve"/>
      <point x="69.0" y="-697.0" type="line"/>
      <point x="213.0" y="-632.0"/>
      <point x="426.0" y="-441.0"/>
      <point x="437.0" y="-313.0" type="qcurve" smooth="yes"/>
      <point x="445.0" y="-253.0"/>
      <point x="381.0" y="-201.0"/>
      <point x="311.0" y="-201.0" type="qcurve" smooth="yes"/>
      <point x="240.0" y="-201.0"/>
      <point x="155.0" y="-278.0"/>
      <point x="146.0" y="-346.0" type="qcurve" smooth="yes"/>
      <point x="138.0" y="-401.0"/>
      <point x="200.0" y="-489.0"/>
      <point x="272.0" y="-489.0" type="qcurve"/>
      <point x="250.0" y="-529.0"/>
      <point x="138.0" y="-621.0"/>
    </contour>
  </outline>
</glyph>
<glyph name="dieresiscombstack.case" format="2">
  <advance width="896"/>
  <outline>
    <contour>
      <point x="192.0" y="1757.0" type="qcurve" smooth="yes"/>
      <point x="192.0" y="1830.0"/>
      <point x="258.0" y="1894.0"/>
      <point x="336.0" y="1894.0" type="qcurve" smooth="yes"/>
      <point x="404.0" y="1894.0"/>
      <point x="478.0" y="1820.0"/>
      <point x="478.0" y="1757.0" type="qcurve" smooth="yes"/>
      <point x="478.0" y="1684.0"/>
      <point x="413.0" y="1617.0"/>
      <point x="336.0" y="1617.0" type="qcurve" smooth="yes"/>
      <point x="266.0" y="1617.0"/>
      <point x="192.0" y="1691.0"/>
    </contour>
    <contour>
      <point x="542.0" y="1757.0" type="qcurve" smooth="yes"/>
      <point x="542.0" y="1830.0"/>
      <point x="609.0" y="1894.0"/>
      <point x="686.0" y="1894.0" type="qcurve" smooth="yes"/>
      <point x="754.0" y="1894.0"/>
      <point x="828.0" y="1820.0"/>
      <point x="828.0" y="1757.0" type="qcurve" smooth="yes"/>
      <point x="828.0" y="1684.0"/>
      <point x="764.0" y="1617.0"/>
      <point x="686.0" y="1617.0" type="qcurve" smooth="yes"/>
      <point x="616.0" y="1617.0"/>
      <point x="542.0" y="1691.0"/>
    </contour>
  </outline>
</glyph>
<glyph name="five.lc" format="2">
  <advance width="1322"/>
  <outline>
    <contour>
      <point x="403.0" y="-473.0" type="qcurve" smooth="yes"/>
      <point x="307.0" y="-495.0"/>
      <point x="52.0" y="-477.0"/>
      <point x="-57.0" y="-453.0" type="qcurve" smooth="yes"/>
      <point x="-34.0" y="-317.0" type="line"/>
      <point x="4.0" y="-328.0"/>
      <point x="113.0" y="-380.0"/>
      <point x="182.0" y="-380.0" type="curve"/>
      <point x="366.0" y="-380.0"/>
      <point x="613.0" y="-317.0"/>
      <point x="613.0" y="-157.0" type="curve"/>
      <point x="613.0" y="-12.0"/>
      <point x="412.0" y="109.0"/>
      <point x="258.0" y="103.0" type="curve"/>
      <point x="286.0" y="99.0" type="line"/>
      <point x="227.0" y="227.0" type="line"/>
      <point x="214.0" y="862.0" type="line"/>
      <point x="245.0" y="896.0" type="line"/>
      <point x="247.0" y="930.0"/>
      <point x="1056.0" y="930.0"/>
      <point x="1082.0" y="946.0" type="qcurve"/>
      <point x="1079.0" y="671.0" type="line"/>
      <point x="1123.0" y="671.0"/>
      <point x="563.0" y="710.0"/>
      <point x="568.0" y="738.0" type="qcurve" smooth="yes"/>
      <point x="575.0" y="775.0"/>
      <point x="490.0" y="808.0"/>
      <point x="407.0" y="808.0" type="qcurve" smooth="yes"/>
      <point x="349.0" y="639.0"/>
      <point x="288.0" y="529.0"/>
      <point x="243.0" y="485.0" type="qcurve"/>
      <point x="467.0" y="478.0" type="line"/>
      <point x="746.0" y="476.0"/>
      <point x="1070.0" y="263.0"/>
      <point x="1080.0" y="71.0" type="qcurve" smooth="yes"/>
      <point x="1143.0" y="-197.0"/>
      <point x="762.0" y="-464.0"/>
    </contour>
  </outline>
</glyph>
<glyph name="gravecombstack.case" format="2">
  <advance width="896"/>
  <outline>
    <contour>
      <point x="248.0" y="1915.0" type="qcurve" smooth="yes"/>
      <point x="255.0" y="1939.0"/>
      <point x="305.0" y="1999.0"/>
      <point x="369.0" y="1991.0" type="qcurve" smooth="yes"/>
      <point x="406.0" y="1984.0"/>
      <point x="494.0" y="1912.0"/>
      <point x="509.0" y="1910.0" type="qcurve" smooth="yes"/>
      <point x="689.0" y="1705.0" type="line"/>
      <point x="682.0" y="1651.0" type="line"/>
      <point x="325.0" y="1792.0" type="line" smooth="yes"/>
      <point x="270.0" y="1814.0"/>
      <point x="242.0" y="1876.0"/>
    </contour>
  </outline>
</glyph>
<glyph name="horizontalbarlc" format="2">
  <advance width="1298"/>
  <outline>
    <contour>
      <point x="527.0" y="694.0" type="line"/>
      <point x="15.0" y="694.0" type="line"/>
      <point x="34.0" y="757.0" type="line"/>
      <point x="495.0" y="757.0" type="line"/>
      <point x="1030.0" y="757.0" type="line"/>
      <point x="1022.0" y="694.0" type="line"/>
    </contour>
  </outline>
</glyph>
<glyph name="hungarumlautcomb.case" format="2">
  <advance width="896"/>
  <outline>
    <contour>
      <point x="827.0" y="1920.0" type="qcurve" smooth="yes"/>
      <point x="827.0" y="1891.0"/>
      <point x="836.0" y="1849.0"/>
      <point x="814.0" y="1833.0" type="qcurve" smooth="yes"/>
      <point x="501.0" y="1608.0" type="line"/>
      <point x="460.0" y="1615.0" type="line"/>
      <point x="622.0" y="1919.0" type="line" smooth="yes"/>
      <point x="637.0" y="1953.0"/>
      <point x="702.0" y="2004.0"/>
      <point x="736.0" y="2004.0" type="qcurve" smooth="yes"/>
      <point x="763.0" y="2004.0"/>
      <point x="827.0" y="1946.0"/>
    </contour>
    <contour>
      <point x="1168.0" y="1920.0" type="qcurve" smooth="yes"/>
      <point x="1168.0" y="1891.0"/>
      <point x="1170.0" y="1844.0"/>
      <point x="1148.0" y="1829.0" type="qcurve" smooth="yes"/>
      <point x="832.0" y="1608.0" type="line"/>
      <point x="791.0" y="1615.0" type="line"/>
      <point x="956.0" y="1915.0" type="line" smooth="yes"/>
      <point x="971.0" y="1949.0"/>
      <point x="1043.0" y="2004.0"/>
      <point x="1077.0" y="2004.0" type="qcurve" smooth="yes"/>
      <point x="1104.0" y="2004.0"/>
      <point x="1168.0" y="1946.0"/>
    </contour>
  </outline>
</glyph>
<glyph name="nine.tab" format="2">
  <advance width="1923"/>
  <outline>
    <contour>
      <point x="197.0" y="-45.0" type="qcurve"/>
      <point x="166.0" y="20.0" type="line"/>
      <point x="600.0" y="166.0"/>
      <point x="1180.0" y="658.0"/>
      <point x="1181.0" y="1041.0" type="qcurve" smooth="yes"/>
      <point x="1182.0" y="1201.0"/>
      <point x="1049.0" y="1454.0"/>
      <point x="881.0" y="1454.0" type="qcurve" smooth="yes"/>
      <point x="758.0" y="1454.0"/>
      <point x="538.0" y="1217.0"/>
      <point x="534.0" y="1076.0" type="qcurve" smooth="yes"/>
      <point x="529.0" y="933.0"/>
      <point x="679.0" y="767.0"/>
      <point x="780.0" y="767.0" type="qcurve" smooth="yes"/>
      <point x="818.0" y="767.0"/>
      <point x="878.0" y="764.0"/>
      <point x="925.0" y="817.0" type="qcurve"/>
      <point x="947.0" y="746.0" type="line"/>
      <point x="901.0" y="698.0"/>
      <point x="727.0" y="641.0"/>
      <point x="630.0" y="641.0" type="qcurve" smooth="yes"/>
      <point x="401.0" y="641.0"/>
      <point x="140.0" y="839.0"/>
      <point x="144.0" y="1026.0" type="qcurve" smooth="yes"/>
      <point x="148.0" y="1263.0"/>
      <point x="603.0" y="1521.0"/>
      <point x="934.0" y="1521.0" type="qcurve" smooth="yes"/>
      <point x="1245.0" y="1521.0"/>
      <point x="1616.0" y="1210.0"/>
      <point x="1613.0" y="1016.0" type="qcurve" smooth="yes"/>
      <point x="1601.0" y="536.0"/>
      <point x="770.0" y="76.0"/>
    </contour>
  </outline>
</glyph>
<glyph name="two.lc" format="2">
  <advance width="1383"/>
  <outline>
    <contour>
      <point x="-22.0" y="-8.0" type="qcurve"/>
      <point x="-69.0" y="74.0" type="line"/>
      <point x="-62.0" y="72.0"/>
      <point x="83.0" y="144.0"/>
      <point x="88.0" y="140.0" type="qcurve" smooth="yes"/>
      <point x="358.0" y="231.0"/>
      <point x="803.0" y="459.0"/>
      <point x="792.0" y="593.0" type="qcurve" smooth="yes"/>
      <point x="785.0" y="681.0"/>
      <point x="635.0" y="767.0"/>
      <point x="522.0" y="767.0" type="qcurve"/>
      <point x="399.0" y="767.0"/>
      <point x="185.0" y="720.0"/>
      <point x="105.0" y="677.0" type="qcurve"/>
      <point x="72.0" y="772.0" type="line"/>
      <point x="157.0" y="830.0"/>
      <point x="456.0" y="928.0"/>
      <point x="684.0" y="928.0" type="qcurve"/>
      <point x="941.0" y="928.0"/>
      <point x="1227.0" y="795.0"/>
      <point x="1233.0" y="699.0" type="qcurve" smooth="yes"/>
      <point x="1247.0" y="516.0"/>
      <point x="748.0" y="304.0"/>
      <point x="433.0" y="222.0" type="qcurve"/>
      <point x="434.0" y="221.0" type="line"/>
      <point x="448.0" y="221.0"/>
      <point x="536.0" y="232.0"/>
      <point x="552.0" y="233.0" type="qcurve"/>
      <point x="722.0" y="224.0"/>
      <point x="941.0" y="211.0"/>
      <point x="1117.0" y="196.0" type="qcurve"/>
      <point x="1213.0" y="311.0" type="line"/>
      <point x="1312.0" y="289.0" type="line"/>
      <point x="1171.0" y="-30.0" type="line"/>
      <point x="994.0" y="-7.0"/>
      <point x="623.0" y="12.0"/>
      <point x="464.0" y="12.0" type="qcurve" smooth="yes"/>
      <point x="365.0" y="12.0"/>
      <point x="52.0" y="10.0"/>
    </contour>
  </outline>
</glyph>
<glyph name="two.tab" format="2">
  <advance width="1923"/>
  <outline>
    <contour>
      <point x="93.0" y="12.0" type="qcurve"/>
      <point x="32.0" y="69.0" type="line"/>
      <point x="203.0" y="198.0" type="line" smooth="yes"/>
      <point x="454.0" y="339.0"/>
      <point x="1063.0" y="865.0"/>
      <point x="1046.0" y="1066.0" type="qcurve" smooth="yes"/>
      <point x="1037.0" y="1187.0"/>
      <point x="860.0" y="1303.0"/>
      <point x="704.0" y="1303.0" type="qcurve" smooth="yes"/>
      <point x="588.0" y="1303.0"/>
      <point x="359.0" y="1204.0"/>
      <point x="286.0" y="1147.0" type="qcurve"/>
      <point x="273.0" y="1238.0" type="line"/>
      <point x="363.0" y="1368.0"/>
      <point x="646.0" y="1513.0"/>
      <point x="890.0" y="1513.0" type="qcurve" smooth="yes"/>
      <point x="1149.0" y="1513.0"/>
      <point x="1429.0" y="1337.0"/>
      <point x="1442.0" y="1196.0" type="qcurve" smooth="yes"/>
      <point x="1466.0" y="991.0"/>
      <point x="1045.0" y="689.0"/>
      <point x="554.0" y="322.0" type="qcurve"/>
      <point x="554.0" y="320.0" type="line"/>
      <point x="583.0" y="321.0"/>
      <point x="693.0" y="323.0"/>
      <point x="753.0" y="325.0" type="qcurve"/>
      <point x="932.0" y="299.0"/>
      <point x="1103.0" y="278.0"/>
      <point x="1283.0" y="248.0" type="qcurve"/>
      <point x="1377.0" y="391.0" type="line"/>
      <point x="1463.0" y="369.0" type="line"/>
      <point x="1297.0" y="-26.0" type="line"/>
      <point x="1058.0" y="39.0"/>
      <point x="718.0" y="94.0"/>
      <point x="590.0" y="98.0" type="qcurve" smooth="yes"/>
      <point x="476.0" y="101.0"/>
      <point x="172.0" y="50.0"/>
    </contour>
  </outline>
</glyph>
